<mxfile host="app.diagrams.net" agent="Mozilla/5.0 (Windows NT 10.0; Win64; x64) AppleWebKit/537.36 (KHTML, like Gecko) Chrome/129.0.0.0 Safari/537.36" version="24.7.17">
  <diagram name="Page-1" id="vwX5oQGY4ok_pxgz0Uzp">
    <mxGraphModel>
      <root>
        <mxCell id="0" />
        <mxCell id="1" parent="0" />
        <mxCell id="2" value="Start" style="ellipse;aspect=fixed;strokeWidth=2;whiteSpace=wrap;" vertex="1" parent="1">
          <mxGeometry x="8" y="159" width="50" height="50" as="geometry" />
        </mxCell>
        <mxCell id="3" value="Get provider&#39;s geographical location" style="rounded=1;arcSize=40;strokeWidth=2" vertex="1" parent="1">
          <mxGeometry x="237" y="152" width="184" height="66" as="geometry" />
        </mxCell>
        <mxCell id="4" value="Verify integrity of geographical location" style="rounded=1;arcSize=40;strokeWidth=2" vertex="1" parent="1">
          <mxGeometry x="644" y="152" width="184" height="66" as="geometry" />
        </mxCell>
        <mxCell id="5" value="Provider is eligible" style="ellipse;aspect=fixed;strokeWidth=2;whiteSpace=wrap;" vertex="1" parent="1">
          <mxGeometry x="1062" y="8" width="148" height="148" as="geometry" />
        </mxCell>
        <mxCell id="6" value="Provider is ineligible" style="ellipse;aspect=fixed;strokeWidth=2;whiteSpace=wrap;" vertex="1" parent="1">
          <mxGeometry x="1056" y="222" width="162" height="162" as="geometry" />
        </mxCell>
        <mxCell id="7" value="Provider&#39;s device added to network" style="rounded=1;arcSize=40;strokeWidth=2" vertex="1" parent="1">
          <mxGeometry x="1474" y="24" width="190" height="66" as="geometry" />
        </mxCell>
        <mxCell id="8" value="Provider&#39;s device not added to network" style="ellipse;aspect=fixed;strokeWidth=2;whiteSpace=wrap;" vertex="1" parent="1">
          <mxGeometry x="1467" y="175" width="203" height="203" as="geometry" />
        </mxCell>
        <mxCell id="9" value="End" style="ellipse;aspect=fixed;strokeWidth=2;whiteSpace=wrap;" vertex="1" parent="1">
          <mxGeometry x="1721" y="164" width="41" height="41" as="geometry" />
        </mxCell>
        <mxCell id="10" value="Start PoC process" style="curved=1;startArrow=none;endArrow=block;exitX=1.01;exitY=0.51;entryX=0;entryY=0.49;" edge="1" parent="1" source="2" target="3">
          <mxGeometry relative="1" as="geometry">
            <Array as="points" />
          </mxGeometry>
        </mxCell>
        <mxCell id="11" value="Calculate witness score based on location data" style="curved=1;startArrow=none;endArrow=block;exitX=1;exitY=0.49;entryX=0;entryY=0.49;" edge="1" parent="1" source="3" target="4">
          <mxGeometry relative="1" as="geometry">
            <Array as="points" />
          </mxGeometry>
        </mxCell>
        <mxCell id="12" value="Location data validation successful" style="curved=1;startArrow=none;endArrow=block;exitX=0.86;exitY=0;entryX=0;entryY=0.5;" edge="1" parent="1" source="4" target="5">
          <mxGeometry relative="1" as="geometry">
            <Array as="points">
              <mxPoint x="942" y="82" />
            </Array>
          </mxGeometry>
        </mxCell>
        <mxCell id="13" value="Location data validation failed" style="curved=1;startArrow=none;endArrow=block;exitX=0.81;exitY=0.99;entryX=0;entryY=0.5;" edge="1" parent="1" source="4" target="6">
          <mxGeometry relative="1" as="geometry">
            <Array as="points">
              <mxPoint x="942" y="303" />
            </Array>
          </mxGeometry>
        </mxCell>
        <mxCell id="14" value="Meet coverage requirements" style="curved=1;startArrow=none;endArrow=block;exitX=1;exitY=0.44;entryX=0;entryY=0.49;" edge="1" parent="1" source="5" target="7">
          <mxGeometry relative="1" as="geometry">
            <Array as="points">
              <mxPoint x="1342" y="57" />
            </Array>
          </mxGeometry>
        </mxCell>
        <mxCell id="15" value="Fail coverage requirements" style="curved=1;startArrow=none;endArrow=block;exitX=1;exitY=0.73;entryX=0;entryY=0.28;" edge="1" parent="1" source="5" target="8">
          <mxGeometry relative="1" as="geometry">
            <Array as="points">
              <mxPoint x="1342" y="174" />
            </Array>
          </mxGeometry>
        </mxCell>
        <mxCell id="16" value="Notify provider of ineligibility" style="curved=1;startArrow=none;endArrow=block;exitX=1;exitY=0.5;entryX=0;entryY=0.56;" edge="1" parent="1" source="6" target="8">
          <mxGeometry relative="1" as="geometry">
            <Array as="points">
              <mxPoint x="1342" y="303" />
            </Array>
          </mxGeometry>
        </mxCell>
        <mxCell id="17" value="" style="curved=1;startArrow=none;endArrow=block;exitX=1;exitY=0.49;entryX=0.32;entryY=0;" edge="1" parent="1" source="7" target="9">
          <mxGeometry relative="1" as="geometry">
            <Array as="points">
              <mxPoint x="1696" y="57" />
            </Array>
          </mxGeometry>
        </mxCell>
        <mxCell id="18" value="" style="curved=1;startArrow=none;endArrow=block;exitX=1;exitY=0.5;entryX=0.25;entryY=1.01;" edge="1" parent="1" source="8" target="9">
          <mxGeometry relative="1" as="geometry">
            <Array as="points">
              <mxPoint x="1696" y="277" />
            </Array>
          </mxGeometry>
        </mxCell>
      </root>
    </mxGraphModel>
  </diagram>
</mxfile>
